<?xml version="1.0" encoding="UTF-8"?>
<svg id="Layer_1" data-name="Layer 1" xmlns="http://www.w3.org/2000/svg" viewBox="0 0 500 500">
  <defs>
    <style>
      .cls-1 {
        stroke: #fff;
        stroke-miterlimit: 10;
      }

      .cls-1, .cls-2 {
        fill: #fff;
        opacity: .8;
      }

      .cls-1, .cls-3 {
        fill-rule: evenodd;
      }
    </style>
  </defs>
  <g>
    <path d="M20.05.5h459.9c10.79,0,19.55,8.76,19.55,19.55v459.9c0,10.79-8.76,19.55-19.55,19.55H20.05c-10.79,0-19.55-8.76-19.55-19.55V20.05C.5,9.26,9.26.5,20.05.5Z"/>
    <path d="M479.95,1c10.5,0,19.05,8.55,19.05,19.05v459.9c0,10.5-8.55,19.05-19.05,19.05H20.05c-10.5,0-19.05-8.55-19.05-19.05V20.05C1,9.55,9.55,1,20.05,1h459.9M479.95,0H20.05C8.98,0,0,8.98,0,20.05v459.9c0,11.07,8.98,20.05,20.05,20.05h459.9c11.07,0,20.05-8.98,20.05-20.05V20.05c0-11.07-8.98-20.05-20.05-20.05h0Z"/>
  </g>
  <g>
    <path id="Mouth:_Underbite" data-name="Mouth: Underbite" class="cls-1" d="M290.39,319.56c2.33-3.04,7.99,10.19,9.14,11.81l.06.07c5.04,6.1,9.15,15.43,9.73,23.25.02.23.02.46.02.69,8.07-1.11,16.15-2.24,24.22-3.48,3.12-2.35,7.49-1.62,11.72.52,9.43,4.76,4.84,19.88-5.32,19.64-27.46-.65-55.52,2.87-82.75,6.05-14.01,1.63-27.99,3.37-41.93,5.58-13.02,2.07-26.33,4.99-39.51,5.56-.72.03-1.02-1.04-.37-1.37,11.62-5.97,24.88-9.58,37.43-13.07,13.57-3.78,27.24-7.33,41.01-10.33,12.36-2.69,24.77-4.7,37.22-6.51-.1-.24-.19-.49-.27-.75-1.58-5.3-1.54-11.37-1.88-16.96l-.2-2.96c-.31-5.11-.61-14.75,1.66-17.72Z"/>
    <g id="Eye:_White" data-name="Eye: White">
      <circle class="cls-2" cx="242.49" cy="205.8" r="83.52"/>
      <g id="face_Cyclops" data-name="face/Cyclops">
        <path id="_-Ink" data-name="🖍-Ink" class="cls-3" d="M222.64,115.57c10.41-3.56,21.66-5.25,32.6-4.71,23.46,1.16,45.8,11.86,61.18,29.68,14.52,16.83,22.41,37.93,22.31,60.2-.11,22.87-6.12,48.63-17.43,68.65-23.77,42.07-79.29,42.36-119.19,25.59-42.58-17.9-59.9-63.04-49.65-106.68,7.71-32.82,34.01-72.2,70.18-72.74ZM292.01,148.06c-12.56-10.09-28.38-14.62-44.37-13.47-7.94.57-16.01,2.65-23.22,6.04-3.83,1.8-7.26,4.32-11.03,6.19-3.36,1.67-7.01,2.64-10.48,4.05l-1.29.55c-5.7,2.55-11.44-1.1-11.73-6.41-12.4,17.4-18.28,40.99-18.19,61.92.07,15.41,3.74,31.42,12.59,44.25,9.83,14.26,26.15,21.78,42.51,25.78,15.67,3.83,32.76,5.15,48.47.81,16.3-4.51,26.84-16.88,32.83-32.31,13-33.46,14.08-73.19-16.09-97.41ZM236.03,189.55c7.11-9.71,19.88-10.23,26.9,0,4.42,6.44,3.77,12.64,3.42,20.05l-.07,1.67c-.21,5.86-.18,12.04-2.38,17.46-2.82,6.96-8.3,11.41-16.07,10.49-4.57-.55-8.4-3.27-10.62-7.04l-.08.04h0c-3.11-6.22-3.92-12.53-4.44-19.31l-.36-4.98c-.44-6.54-.46-12.7,3.69-18.38Z"/>
      </g>
    </g>
  </g>
</svg>